<svg width="57" height="57" viewBox="0 0 57 57" fill="none" xmlns="http://www.w3.org/2000/svg">
<path d="M38.94 24.272H32.804C32.273 24.272 31.86 23.8576 31.86 23.3248V17.168C31.86 16.1024 30.975 15.2736 29.972 15.2736H26.137C25.075 15.2736 24.249 16.1616 24.249 17.168V23.3248C24.249 23.8576 23.836 24.272 23.305 24.272H17.169C16.107 24.272 15.281 25.16 15.281 26.1664V30.0144C15.281 31.08 16.166 31.9088 17.169 31.9088H23.305C23.836 31.9088 24.249 32.3232 24.249 32.856V39.0128C24.249 40.0784 25.134 40.9072 26.137 40.9072H29.972C31.034 40.9072 31.86 40.0192 31.86 39.0128V32.856C31.86 32.3232 32.273 31.9088 32.804 31.9088H38.94C40.002 31.9088 40.828 31.0208 40.828 30.0144V26.1664C40.828 25.16 40.002 24.272 38.94 24.272Z" fill="black"/>
<path d="M45.548 0H10.502C4.72 0 0 4.736 0 10.5376V45.7616C0 51.5632 4.72 56.2992 10.502 56.2992H45.607C51.389 56.2992 56.109 51.5632 56.109 45.7616V10.5376C56.05 4.736 51.33 0 45.548 0ZM48.38 45.7024C48.38 47.2416 47.141 48.544 45.548 48.544H10.502C8.968 48.544 7.67 47.3008 7.67 45.7024V10.5376C7.67 8.9984 8.909 7.696 10.502 7.696H45.607C47.141 7.696 48.439 8.9392 48.439 10.5376V45.7024H48.38Z" fill="black"/>
</svg>
