<svg width="29" height="29" viewBox="0 0 29 29" fill="none" xmlns="http://www.w3.org/2000/svg">
<path d="M0 26.3983C0 27.8478 1.15216 29 2.60165 29H24.1582C25.6077 29 26.7599 27.8478 26.7599 26.3983V11.3831C26.7599 10.5654 26.0909 9.8964 25.2732 9.8964C24.4555 9.8964 23.7865 10.5654 23.7865 11.3831V26.0267H2.97332V5.21343H17.4682C18.2859 5.21343 18.9549 4.54443 18.9549 3.72677C18.9549 2.90911 18.2859 2.24011 17.4682 2.24011H2.60165C1.15216 2.24011 0 3.39227 0 4.84177V26.3983Z" fill="black"/>
<path d="M27.6518 0.344645C27.02 -0.175686 26.0908 -0.101353 25.5705 0.530477L12.1906 16.6607L8.25094 13.3157C7.61911 12.7954 6.68995 12.8697 6.16962 13.4644C5.64929 14.0962 5.72362 15.0254 6.31828 15.5457L10.5181 19.1509C11.0013 19.5597 11.5959 19.7827 12.1906 19.7827C12.2649 19.7827 12.3393 19.7827 12.4136 19.7827C13.1197 19.7084 13.7516 19.3739 14.1976 18.8535L27.8005 2.42597C28.358 1.79414 28.2837 0.864976 27.6518 0.344645Z" fill="black"/>
</svg>
