<svg width="68" height="57" viewBox="0 0 68 57" fill="none" xmlns="http://www.w3.org/2000/svg">
<path d="M64.3415 20.8515H42.4972V2.42184C42.4972 1.06325 41.167 0 39.6266 0H28.3544C26.7441 0 25.4839 1.12232 25.4839 2.42184V20.8515H3.6396C2.02929 20.8515 0.769043 21.9738 0.769043 23.2733V32.7835C0.769043 34.1421 2.0993 35.2053 3.6396 35.2053H25.4839V53.635C25.4839 54.9936 26.8141 56.0568 28.3544 56.0568H39.5566C41.167 56.0568 42.4272 54.9345 42.4272 53.635V35.2053H64.2715C65.8818 35.2053 67.142 34.083 67.142 32.7835V23.3324C67.2121 21.9738 65.8818 20.8515 64.3415 20.8515Z" fill="black"/>
</svg>
