<svg width="27" height="27" viewBox="0 0 27 27" fill="none" xmlns="http://www.w3.org/2000/svg">
<path d="M26.9988 2.28342C26.9942 2.86681 26.7389 3.48211 26.3287 3.89686L26.2922 3.93332C26.0005 4.22957 25.7088 4.51671 25.417 4.80841L16.7244 13.5L26.3287 23.1031C26.7617 23.5361 26.9714 24.1104 26.9988 24.7166C27.0216 25.3273 26.7253 25.8925 26.3287 26.33C25.9458 26.7539 25.2757 27 24.7151 27C24.1316 26.9954 23.5162 26.7402 23.1014 26.33L23.065 26.2936C22.7687 26.0019 22.4815 25.7102 22.1898 25.4185L13.5017 16.7223L3.89734 26.3255C3.45974 26.763 2.88996 26.9681 2.2837 26.9954C1.67289 27.0182 1.10767 26.722 0.670069 26.3255C0.246148 25.9426 0 25.2726 0 24.712C0.00455829 24.1286 0.259823 23.5133 0.670069 23.0986L0.706535 23.0621C0.998266 22.7659 1.29 22.4787 1.58173 22.187L10.279 13.5L0.674628 3.89686C0.237031 3.45932 0.0319076 2.8896 0.00455788 2.28342C-0.0182336 1.67269 0.278056 1.10753 0.674628 0.669986C1.05752 0.246117 1.72759 0 2.28826 0C2.87172 0.00455773 3.48709 0.259791 3.9019 0.669986L3.93837 0.706448C4.23465 0.998143 4.52183 1.28984 4.81356 1.58153L13.5017 10.2777L23.106 0.674544C23.539 0.24156 24.1134 0.0319037 24.7196 0.00455731C25.3304 -0.0182313 25.8957 0.278022 26.3333 0.674544C26.7526 1.05739 26.9988 1.72282 26.9988 2.28342Z" fill="black"/>
</svg>
