<svg width="58" height="56" viewBox="0 0 58 56" fill="none" xmlns="http://www.w3.org/2000/svg">
<path d="M16.2477 4.03595C14.9225 5.82078 12.7925 6.45617 12.7925 6.45617C12.7925 6.45617 12.8138 4.2017 14.1405 2.41886C15.4679 0.636023 17.5938 0 17.5938 0C17.5938 0 17.5704 2.255 16.2477 4.03595Z" fill="black"/>
<path d="M14.3035 9.4218C12.1283 9.73619 10.1782 8.66191 10.1782 8.66191C10.1782 8.66191 11.7567 7.07485 13.9325 6.76046C16.1097 6.4468 18.0581 7.52234 18.0581 7.52234C18.0581 7.52234 16.4794 9.10678 14.3035 9.4218Z" fill="black"/>
<path d="M9.94974 14.0547C8.02425 15.1363 5.82446 14.8345 5.82446 14.8345C5.82446 14.8345 6.74884 12.7825 8.67234 11.7009C10.5945 10.622 12.7923 10.9237 12.7923 10.9237C12.7923 10.9237 11.8705 12.9744 9.94974 14.0547Z" fill="black"/>
<path d="M7.19928 20.9338C5.84126 22.6915 3.70142 23.2842 3.70142 23.2842C3.70142 23.2842 3.76303 21.0311 5.122 19.2735C6.47865 17.5139 8.61724 16.9218 8.61724 16.9218C8.61724 16.9218 8.55562 19.1769 7.19928 20.9338Z" fill="black"/>
<path d="M7.43775 28.1953C6.87027 30.3572 5.13404 31.7605 5.13404 31.7605C5.13404 31.7605 4.31757 29.6605 4.88368 27.5033C5.45106 25.3434 7.18739 23.9402 7.18739 23.9402C7.18739 23.9402 8.00323 26.0362 7.43775 28.1953Z" fill="black"/>
<path d="M9.91591 34.1795C10.3096 36.3773 9.32912 38.4006 9.32912 38.4006C9.32912 38.4006 7.71245 36.8575 7.31912 34.659C6.92485 32.4591 7.90781 30.4359 7.90781 30.4359C7.90781 30.4359 9.525 31.9776 9.91591 34.1795Z" fill="black"/>
<path d="M13.9764 38.0462C14.9515 40.0503 14.5572 42.2694 14.5572 42.2694C14.5572 42.2694 12.5831 41.2417 11.6071 39.2369C10.6351 37.2343 11.0263 35.0151 11.0263 35.0151C11.0263 35.0151 13.0034 36.0409 13.9764 38.0462Z" fill="black"/>
<path d="M19.6909 40.9293C21.2613 42.4945 21.6063 44.7202 21.6063 44.7202C21.6063 44.7202 19.4119 44.4131 17.842 42.8487C16.2743 41.2856 15.9226 39.0585 15.9226 39.0585C15.9226 39.0585 18.1205 39.3662 19.6909 40.9293Z" fill="black"/>
<path d="M5.4686 15.0896C5.5109 17.3226 4.22479 19.1601 4.22479 19.1601C4.22479 19.1601 2.86939 17.3739 2.82646 15.1394C2.78416 12.905 4.07153 11.0668 4.07153 11.0668C4.07153 11.0668 5.42598 12.8525 5.4686 15.0896Z" fill="black"/>
<path d="M3.20385 24.2372C4.3408 26.1492 4.13327 28.3924 4.13327 28.3924C4.13327 28.3924 2.08097 27.5385 0.942763 25.6285C-0.19345 23.713 0.0150239 21.4673 0.0150239 21.4673C0.0150239 21.4673 2.06701 22.3244 3.20385 24.2372Z" fill="black"/>
<path d="M4.68047 32.118C6.46373 33.4247 7.1367 35.5732 7.1367 35.5732C7.1367 35.5732 4.91718 35.6045 3.13602 34.2951C1.35308 32.9884 0.68042 30.8398 0.68042 30.8398C0.68042 30.8398 2.8969 30.8087 4.68047 32.118Z" fill="black"/>
<path d="M9.34844 39.0886C11.4717 39.668 12.851 41.4322 12.851 41.4322C12.851 41.4322 10.7877 42.2607 8.66749 41.6853C6.54192 41.1099 5.16333 39.3429 5.16333 39.3429C5.16333 39.3429 7.22518 38.5125 9.34844 39.0886Z" fill="black"/>
<path d="M14.0357 42.8027C16.2272 42.6608 18.0883 43.8869 18.0883 43.8869C18.0883 43.8869 16.396 45.3414 14.2022 45.4853C12.011 45.6273 10.1465 44.4018 10.1465 44.4018C10.1465 44.4018 11.8425 42.9452 14.0357 42.8027Z" fill="black"/>
<path d="M20.1683 45.5573C22.2632 44.8827 24.3595 45.6147 24.3595 45.6147C24.3595 45.6147 23.0622 47.4415 20.9688 48.1195C18.8756 48.7968 16.7764 48.0662 16.7764 48.0662C16.7764 48.0662 18.0747 46.236 20.1683 45.5573Z" fill="black"/>
<path d="M9.79796 8.51142C9.11123 10.6353 7.29911 11.936 7.29911 11.936C7.29911 11.936 6.60252 9.7948 7.28683 7.67364C7.97449 5.54912 9.78536 4.24768 9.78536 4.24768C9.78536 4.24768 10.4847 6.38963 9.79796 8.51142Z" fill="black"/>
<path d="M26.3821 43.3724C24.5862 42.0809 22.3696 42.1322 22.3696 42.1322C22.3696 42.1322 23.0586 44.2734 24.8551 45.5648C26.6487 46.8549 28.8672 46.8049 28.8672 46.8049C28.8672 46.8049 28.1767 44.6624 26.3821 43.3724Z" fill="black"/>
<path d="M41.4858 4.03595C42.8118 5.82078 44.9411 6.45617 44.9411 6.45617C44.9411 6.45617 44.9198 4.2017 43.5938 2.41886C42.2658 0.636023 40.1392 0 40.1392 0C40.1392 0 40.1631 2.255 41.4858 4.03595Z" fill="black"/>
<path d="M43.4293 9.4218C45.6057 9.73619 47.5538 8.66191 47.5538 8.66191C47.5538 8.66191 45.9761 7.07485 43.8016 6.76046C41.6237 6.4468 39.6743 7.52234 39.6743 7.52234C39.6743 7.52234 41.254 9.10678 43.4293 9.4218Z" fill="black"/>
<path d="M47.7837 14.0547C49.7091 15.1363 51.9075 14.8345 51.9075 14.8345C51.9075 14.8345 50.9837 12.7825 49.0604 11.7009C47.1382 10.622 44.9412 10.9237 44.9412 10.9237C44.9412 10.9237 45.8622 12.9744 47.7837 14.0547Z" fill="black"/>
<path d="M50.5344 20.9338C51.8924 22.6915 54.0315 23.2842 54.0315 23.2842C54.0315 23.2842 53.9703 21.0311 52.6103 19.2735C51.2543 17.5139 49.1165 16.9218 49.1165 16.9218C49.1165 16.9218 49.177 19.1769 50.5344 20.9338Z" fill="black"/>
<path d="M50.2958 28.1953C50.8633 30.3572 52.6009 31.7605 52.6009 31.7605C52.6009 31.7605 53.4148 29.6605 52.8493 27.5033C52.2832 25.3434 50.5463 23.9402 50.5463 23.9402C50.5463 23.9402 49.729 26.0362 50.2958 28.1953Z" fill="black"/>
<path d="M47.8165 34.1795C47.425 36.3773 48.4047 38.4006 48.4047 38.4006C48.4047 38.4006 50.021 36.8575 50.4153 34.659C50.8082 32.4591 49.8266 30.4359 49.8266 30.4359C49.8266 30.4359 48.2094 31.9776 47.8165 34.1795Z" fill="black"/>
<path d="M43.7572 38.0462C42.7821 40.0503 43.1757 42.2694 43.1757 42.2694C43.1757 42.2694 45.1504 41.2417 46.1254 39.2369C47.0985 37.2343 46.7069 35.0151 46.7069 35.0151C46.7069 35.0151 44.73 36.0409 43.7572 38.0462Z" fill="black"/>
<path d="M38.0426 40.9293C36.4729 42.4945 36.1272 44.7202 36.1272 44.7202C36.1272 44.7202 38.3224 44.4131 39.8914 42.8487C41.4585 41.2856 41.8109 39.0585 41.8109 39.0585C41.8109 39.0585 39.6116 39.3662 38.0426 40.9293Z" fill="black"/>
<path d="M52.2639 15.0896C52.2227 17.3226 53.5081 19.1601 53.5081 19.1601C53.5081 19.1601 54.8641 17.3739 54.9067 15.1394C54.9487 12.905 53.6606 11.0668 53.6606 11.0668C53.6606 11.0668 52.3079 12.8525 52.2639 15.0896Z" fill="black"/>
<path d="M54.5296 24.2372C53.392 26.1492 53.5998 28.3924 53.5998 28.3924C53.5998 28.3924 55.6526 27.5385 56.7907 25.6285C57.9275 23.713 57.719 21.4673 57.719 21.4673C57.719 21.4673 55.6657 22.3244 54.5296 24.2372Z" fill="black"/>
<path d="M53.0524 32.118C51.2701 33.4247 50.5974 35.5732 50.5974 35.5732C50.5974 35.5732 52.8159 35.6045 54.5981 34.2951C56.3797 32.9884 57.0523 30.8398 57.0523 30.8398C57.0523 30.8398 54.8361 30.8087 53.0524 32.118Z" fill="black"/>
<path d="M48.3846 39.0886C46.2613 39.668 44.8821 41.4322 44.8821 41.4322C44.8821 41.4322 46.9459 42.2607 49.0658 41.6853C51.1917 41.1099 52.5697 39.3429 52.5697 39.3429C52.5697 39.3429 50.5083 38.5125 48.3846 39.0886Z" fill="black"/>
<path d="M43.6978 42.8027C41.506 42.6608 39.6458 43.8869 39.6458 43.8869C39.6458 43.8869 41.3374 45.3414 43.5313 45.4853C45.7225 45.6273 47.5873 44.4018 47.5873 44.4018C47.5873 44.4018 45.891 42.9452 43.6978 42.8027Z" fill="black"/>
<path d="M37.5652 45.5573C35.4693 44.8827 33.3733 45.6147 33.3733 45.6147C33.3733 45.6147 34.6701 47.4415 36.7652 48.1195C38.8572 48.7968 40.9564 48.0662 40.9564 48.0662C40.9564 48.0662 39.6592 46.236 37.5652 45.5573Z" fill="black"/>
<path d="M47.9355 8.51142C48.6221 10.6353 50.4345 11.936 50.4345 11.936C50.4345 11.936 51.1318 9.7948 50.4457 7.67364C49.7583 5.54912 47.9488 4.24768 47.9488 4.24768C47.9488 4.24768 47.2495 6.38963 47.9355 8.51142Z" fill="black"/>
<path d="M31.3514 43.3724C33.1469 42.0809 35.3635 42.1322 35.3635 42.1322C35.3635 42.1322 34.6747 44.2734 32.8778 45.5648C31.085 46.8549 28.8672 46.8049 28.8672 46.8049C28.8672 46.8049 29.5572 44.6624 31.3514 43.3724Z" fill="black"/>
<path d="M21.3232 55.5862C21.2625 55.5862 21.2019 55.5696 21.1481 55.5362C20.9876 55.4383 20.935 55.2259 21.0316 55.0615C21.0935 54.9575 22.5774 52.4846 25.7909 50.2222C28.9717 47.9818 31.1582 47.0347 31.2501 46.9967C31.422 46.9228 31.6231 47.0053 31.695 47.1805C31.7675 47.3557 31.687 47.5595 31.5132 47.6334C31.4905 47.6427 29.2954 48.5944 26.1778 50.7902C23.0929 52.9627 21.6289 55.395 21.6142 55.419C21.5509 55.5263 21.4381 55.5862 21.3232 55.5862Z" fill="black"/>
<path d="M36.4097 55.5862C36.2957 55.5862 36.1832 55.5264 36.1186 55.4191C36.1053 55.3951 34.6401 52.9629 31.5552 50.7903C28.4383 48.5945 26.2421 47.6428 26.2198 47.6335C26.0472 47.5596 25.9647 47.3557 26.038 47.1806C26.1113 47.0054 26.3111 46.9229 26.4836 46.9968C26.5762 47.0347 28.762 47.9819 31.9429 50.2223C35.1563 52.4847 36.6401 54.9576 36.7028 55.0616C36.7987 55.2261 36.7461 55.4385 36.5863 55.5364C36.5309 55.5695 36.4716 55.5862 36.4097 55.5862Z" fill="black"/>
<path d="M28.7287 6.901C19.4059 6.901 11.8401 14.4648 11.8401 23.7975C11.8401 33.1249 19.4059 40.6889 28.7287 40.6889C38.0607 40.6889 45.6266 33.1249 45.6266 23.7975C45.6266 14.4648 38.0607 6.901 28.7287 6.901ZM28.7303 39.4162C20.1185 39.4162 13.1124 32.4097 13.1124 23.7977C13.1124 15.1828 20.1185 8.17441 28.7303 8.17441C37.3447 8.17441 44.3538 15.1828 44.3538 23.7977C44.3538 32.4096 37.3448 39.4162 28.7303 39.4162Z" fill="black"/>
<path d="M28.7303 8.80646C20.4682 8.80646 13.7461 15.5318 13.7461 23.7977C13.7461 32.0608 20.4682 38.7828 28.7303 38.7828C36.9957 38.7828 43.7198 32.0608 43.7198 23.7977C43.7198 15.5318 36.9958 8.80646 28.7303 8.80646ZM34.8812 28.2072H22.585V19.9048L25.2773 22.315L28.7343 16.9217L32.1906 22.315L34.8812 19.9048V28.2072Z" fill="black"/>
</svg>
