<svg width="40" height="48" viewBox="0 0 40 48" fill="none" xmlns="http://www.w3.org/2000/svg">
<path d="M20.0001 20.2992C25.5352 20.2992 30.0408 15.827 30.0408 10.3162C30.0408 4.82219 25.5352 0.349976 20.0001 0.349976C14.4651 0.349976 9.95947 4.82219 9.95947 10.3162C9.95947 15.827 14.4651 20.2992 20.0001 20.2992Z" fill="black"/>
<path d="M0.576904 40.4327V45.575C0.576904 46.4962 1.3363 47.25 2.2644 47.25H37.7357C38.6638 47.25 39.4232 46.4962 39.4232 45.575V40.4327C39.4232 35.2904 37.3982 30.4497 33.7363 26.7982C32.0657 25.1567 30.0576 23.7664 27.8975 22.8117C27.4588 22.6275 26.9525 22.6275 26.5138 22.8285C22.4469 24.6375 17.5531 24.6375 13.4863 22.8285C13.0476 22.6275 12.5413 22.6275 12.1025 22.8117C5.09939 25.8937 0.576904 32.8115 0.576904 40.4327Z" fill="black"/>
</svg>
