<svg width="58" height="72" viewBox="0 0 58 72" fill="none" xmlns="http://www.w3.org/2000/svg">
<path d="M35.67 6.687H34.6459C34.6731 6.48 34.6821 6.273 34.6821 6.057C34.6821 2.943 32.1356 0.414001 29 0.414001C25.8643 0.414001 23.3178 2.943 23.3178 6.057C23.3178 6.273 23.3268 6.48 23.354 6.687H22.33C21.2062 6.687 20.2909 7.587 20.2909 8.712V12.663C20.2909 13.779 21.2062 14.688 22.33 14.688H35.67C36.7937 14.688 37.709 13.779 37.709 12.663V8.712C37.709 7.587 36.7937 6.687 35.67 6.687ZM30.9575 6.687H27.0425C26.979 6.489 26.9428 6.273 26.9428 6.057C26.9428 4.932 27.8671 4.014 29 4.014C30.1328 4.014 31.0571 4.932 31.0571 6.057C31.0571 6.273 31.0209 6.489 30.9575 6.687Z" fill="black"/>
<path d="M44.4425 9.81H41.334V12.663C41.334 15.768 38.7965 18.288 35.67 18.288H22.33C19.2034 18.288 16.6659 15.768 16.6659 12.663V9.81H13.5575C10.0684 9.81 7.22278 12.636 7.22278 16.101V50.895C7.22278 54.36 10.0684 57.186 13.5575 57.186H44.4425C47.9315 57.186 50.7772 54.36 50.7772 50.895V16.101C50.7772 12.636 47.9315 9.81 44.4425 9.81ZM25.5834 43.677L21.2425 47.988C20.7259 48.501 20.0462 48.78 19.3212 48.78C18.5962 48.78 17.9165 48.501 17.4 47.988L14.79 45.396C13.7297 44.343 13.7297 42.633 14.79 41.58C15.8503 40.527 17.5722 40.527 18.6325 41.58L19.3212 42.264L21.7409 39.861C22.8012 38.808 24.5231 38.808 25.5834 39.861C26.6437 40.914 26.6437 42.624 25.5834 43.677ZM25.5834 30.438L21.2425 34.749C20.7259 35.262 20.0462 35.541 19.3212 35.541C18.5962 35.541 17.9165 35.262 17.4 34.749L14.79 32.157C13.7297 31.104 13.7297 29.394 14.79 28.341C15.8503 27.288 17.5722 27.288 18.6325 28.341L19.3212 29.025L21.7409 26.622C22.8012 25.569 24.5231 25.569 25.5834 26.622C26.6437 27.675 26.6437 29.385 25.5834 30.438ZM41.2887 46.629H33.2593C31.764 46.629 30.5406 45.414 30.5406 43.929C30.5406 42.444 31.764 41.229 33.2593 41.229H41.2887C42.784 41.229 44.0075 42.444 44.0075 43.929C44.0075 45.414 42.784 46.629 41.2887 46.629ZM41.2887 33.39H33.2593C31.764 33.39 30.5406 32.175 30.5406 30.69C30.5406 29.205 31.764 27.99 33.2593 27.99H41.2887C42.784 27.99 44.0075 29.205 44.0075 30.69C44.0075 32.175 42.784 33.39 41.2887 33.39Z" fill="black"/>
</svg>
