<svg width="44" height="58" viewBox="0 0 44 58" fill="none" xmlns="http://www.w3.org/2000/svg">
<path d="M28.67 6.687H27.6459C27.6731 6.48 27.6821 6.273 27.6821 6.057C27.6821 2.943 25.1356 0.414001 22 0.414001C18.8643 0.414001 16.3178 2.943 16.3178 6.057C16.3178 6.273 16.3268 6.48 16.354 6.687H15.33C14.2062 6.687 13.2909 7.587 13.2909 8.712V12.663C13.2909 13.779 14.2062 14.688 15.33 14.688H28.67C29.7937 14.688 30.709 13.779 30.709 12.663V8.712C30.709 7.587 29.7937 6.687 28.67 6.687ZM23.9575 6.687H20.0425C19.979 6.489 19.9428 6.273 19.9428 6.057C19.9428 4.932 20.8671 4.014 22 4.014C23.1328 4.014 24.0571 4.932 24.0571 6.057C24.0571 6.273 24.0209 6.489 23.9575 6.687Z" fill="black"/>
<path d="M37.4425 9.81H34.334V12.663C34.334 15.768 31.7965 18.288 28.67 18.288H15.33C12.2034 18.288 9.6659 15.768 9.6659 12.663V9.81H6.55747C3.0684 9.81 0.222778 12.636 0.222778 16.101V50.895C0.222778 54.36 3.0684 57.186 6.55747 57.186H37.4425C40.9315 57.186 43.7772 54.36 43.7772 50.895V16.101C43.7772 12.636 40.9315 9.81 37.4425 9.81ZM18.5834 43.677L14.2425 47.988C13.7259 48.501 13.0462 48.78 12.3212 48.78C11.5962 48.78 10.9165 48.501 10.4 47.988L7.78997 45.396C6.72965 44.343 6.72965 42.633 7.78997 41.58C8.85028 40.527 10.5722 40.527 11.6325 41.58L12.3212 42.264L14.7409 39.861C15.8012 38.808 17.5231 38.808 18.5834 39.861C19.6437 40.914 19.6437 42.624 18.5834 43.677ZM18.5834 30.438L14.2425 34.749C13.7259 35.262 13.0462 35.541 12.3212 35.541C11.5962 35.541 10.9165 35.262 10.4 34.749L7.78997 32.157C6.72965 31.104 6.72965 29.394 7.78997 28.341C8.85028 27.288 10.5722 27.288 11.6325 28.341L12.3212 29.025L14.7409 26.622C15.8012 25.569 17.5231 25.569 18.5834 26.622C19.6437 27.675 19.6437 29.385 18.5834 30.438ZM34.2887 46.629H26.2593C24.764 46.629 23.5406 45.414 23.5406 43.929C23.5406 42.444 24.764 41.229 26.2593 41.229H34.2887C35.784 41.229 37.0075 42.444 37.0075 43.929C37.0075 45.414 35.784 46.629 34.2887 46.629ZM34.2887 33.39H26.2593C24.764 33.39 23.5406 32.175 23.5406 30.69C23.5406 29.205 24.764 27.99 26.2593 27.99H34.2887C35.784 27.99 37.0075 29.205 37.0075 30.69C37.0075 32.175 35.784 33.39 34.2887 33.39Z" fill="black"/>
</svg>
