<svg width="22" height="19" viewBox="0 0 22 19" fill="none" xmlns="http://www.w3.org/2000/svg">
<path d="M7.85139 0.0124606C4.01652 0.00559354 0.901062 2.79171 0.911177 6.21901C0.921293 9.64631 4.05323 12.4436 7.8881 12.4505C9.55493 12.4535 11.0866 11.928 12.2838 11.0526L13.0469 11.7342C12.9252 11.8398 12.7978 11.9569 12.6855 12.0639C12.468 12.2992 12.4891 12.6827 12.7314 12.8997L19.0106 18.508C19.2691 18.7396 19.7394 18.7404 19.9964 18.5097L21.6158 17.0615C21.8738 16.8316 21.8725 16.4114 21.6132 16.1805C15.3325 10.5708 17.2121 12.3018 15.3413 10.5787C15.0842 10.3415 14.6077 10.3376 14.3482 10.5705L14.0301 10.855L13.267 10.1734C14.2458 9.10289 14.8327 7.73366 14.8283 6.24399C14.8182 2.81669 11.6863 0.0193276 7.85139 0.0124606ZM7.85506 1.25627C10.9378 1.26179 13.4285 3.48634 13.4366 6.24144C13.4447 8.99653 10.9672 11.2122 7.88443 11.2067C4.8017 11.2012 2.31102 8.97659 2.30289 6.2215C2.29476 3.4664 4.77233 1.25075 7.85506 1.25627ZM7.55185 1.67032C7.18751 1.68656 6.87411 1.99775 6.89405 2.32344C6.91399 2.64914 7.26367 2.93062 7.62801 2.91425C9.81401 2.91816 11.5758 4.49174 11.5816 6.44541C11.5774 6.77396 11.9117 7.07676 12.2793 7.07742C12.647 7.07808 12.9795 6.77647 12.9733 6.44791C12.9656 3.82203 10.5625 1.67571 7.62434 1.67045C7.60019 1.66937 7.57599 1.66933 7.55185 1.67032ZM14.845 11.8929C15.9804 12.9377 15.8733 12.8109 20.1431 16.6184L19.4997 17.1938L14.2088 12.4618L14.845 11.8929Z" fill="black"/>
</svg>
